Coordinates
version=1
nRows=29
nColumns=22
inDegrees=yes

Units are S.I. units (second, meters, Newtons, ...)
If the header above contains a line with 'inDegrees', this indicates whether rotational values are in degrees (yes) or radians (no).

endheader
time	pelvis_tilt	pelvis_list	pelvis_rotation	pelvis_tx	pelvis_ty	pelvis_tz	hip_flexion_r	hip_adduction_r	hip_rotation_r	knee_angle_r	ankle_angle_r	subtalar_angle_r	hip_flexion_l	hip_adduction_l	hip_rotation_l	knee_angle_l	ankle_angle_l	subtalar_angle_l	lumbar_extension	lumbar_bending	lumbar_rotation
      4.11000000	     -2.86348399	     -3.14756824	   -101.86117225	      0.17291288	      0.92223223	      1.03896663	     -3.07905505	      7.25416440	      8.08357558	    -34.45585550	      4.60772991	      5.98775776	     15.49047853	     -6.56713053	    -13.13677798	    -19.18848204	     -1.99558595	      0.23562653	     -6.41439962	      0.11802251	      7.56448986
      4.12000000	     -2.97973704	     -3.11110540	   -102.18600591	      0.17292905	      0.92345992	      1.04542526	     -2.28353407	      7.16809745	      7.96758888	    -36.18810333	      2.81096046	      7.59836355	     15.08606604	     -6.68389355	    -13.40337385	    -19.37810931	     -1.55719849	      0.22801544	     -6.32630345	      0.12321105	      7.39915837
      4.13000000	     -3.14370338	     -3.03143262	   -102.50317584	      0.17286989	      0.92458861	      1.05164631	     -1.35969452	      7.13323578	      7.84331779	    -37.98351832	      0.88820334	      9.22096593	     14.64299890	     -6.84338757	    -13.70043685	    -19.39588821	     -1.10499660	      0.26325934	     -6.22498042	      0.18797562	      7.19221855
      4.14000000	     -3.33532618	     -2.92401953	   -102.81642926	      0.17277250	      0.92560697	      1.05761866	     -0.32800404	      7.12627957	      7.73629560	    -39.83200897	     -1.10136722	     10.82594617	     14.17908435	     -7.02720838	    -14.02854700	    -19.30055724	     -0.64890715	      0.32737181	     -6.12684919	      0.29338401	      6.94534809
      4.15000000	     -3.53548236	     -2.81043790	   -103.13048405	      0.17265778	      0.92652649	      1.06335789	      0.78539588	      7.12173735	      7.64781028	    -41.72871210	     -3.09055238	     12.30987888	     13.69452398	     -7.21524788	    -14.38495479	    -19.13089286	     -0.21856504	      0.40862971	     -6.05106355	      0.41652625	      6.67117608
      4.16000000	     -3.71794866	     -2.70887031	   -103.43908020	      0.17257579	      0.92734662	      1.06891371	      1.95512670	      7.08006581	      7.55910127	    -43.66219622	     -4.99829815	     13.59020866	     13.19275600	     -7.37736982	    -14.77644102	    -18.92122047	      0.20017597	      0.50074464	     -6.00464292	      0.53034629	      6.36153536
      4.17000000	     -3.86209083	     -2.63284460	   -103.73933766	      0.17254817	      0.92806954	      1.07431216	      3.16207303	      6.97422192	      7.46462715	    -45.62530524	     -6.74698822	     14.61574512	     12.68398064	     -7.49077576	    -15.18959410	    -18.71161617	      0.61799753	      0.59633708	     -5.99215044	      0.61294523	      6.00863311
      4.18000000	     -3.95442789	     -2.58957751	   -104.02715227	      0.17259163	      0.92870718	      1.07957948	      4.38725896	      6.78895004	      7.37084296	    -47.59662060	     -8.29344829	     15.34259748	     12.17032644	     -7.53670013	    -15.60529683	    -18.51325142	      1.03160489	      0.68258382	     -6.01391157	      0.64906686	      5.60468091
      4.19000000	     -3.99023243	     -2.60397163	   -104.30686010	      0.17271551	      0.92929576	      1.08467550	      5.60274038	      6.50894433	      7.27231911	    -49.56149640	     -9.61417481	     15.74931805	     11.64605387	     -7.50462044	    -15.99640157	    -18.35655658	      1.38822358	      0.74578679	     -6.10244071	      0.62402928	      5.20243538
      4.20000000	     -3.98280946	     -2.67193888	   -104.57291121	      0.17292538	      0.92988279	      1.08968660	      6.77164678	      6.14752344	      7.17419719	    -51.44848634	    -10.69137923	     15.94046394	     11.08280157	     -7.39723584	    -16.35442593	    -18.18761456	      1.72737262	      0.78370059	     -6.24090743	      0.55918426	      4.78051968
      4.21000000	     -3.91711734	     -2.77479853	   -104.81765360	      0.17320501	      0.93041932	      1.09453681	      7.91154443	      5.70617389	      7.09713582	    -53.23609536	    -11.46801484	     16.01182478	     10.54312163	     -7.21010153	    -16.64499770	    -18.07211777	      2.06165126	      0.79578542	     -6.41219895	      0.43333472	      4.35070054
      4.22000000	     -3.77844601	     -2.86188847	   -105.02703912	      0.17357360	      0.93088203	      1.09931472	      9.05113310	      5.16818789	      7.00612499	    -54.87002864	    -11.88515749	     15.94842974	     10.05552143	     -6.93521235	    -16.92800899	    -17.94903204	      2.31731424	      0.74373772	     -6.53469876	      0.25639085	      3.86602292
      4.23000000	     -3.65484504	     -2.98779614	   -105.20704251	      0.17395086	      0.93140654	      1.10397612	     10.07904031	      4.63380207	      6.93427802	    -56.27904103	    -12.00423957	     15.84881592	      9.54369362	     -6.65086249	    -17.11970139	    -17.83003267	      2.57180851	      0.65867843	     -6.70527695	      0.09146539	      3.40491680
      4.24000000	     -3.56513662	     -3.12281123	   -105.35273349	      0.17429033	      0.93200040	      1.10855528	     10.99896894	      4.13570875	      6.88076643	    -57.42413977	    -11.82656511	     15.74733996	      9.02213608	     -6.38964588	    -17.25298552	    -17.69555596	      2.79618108	      0.54609190	     -6.88547746	     -0.03235825	      2.94327812
      4.25000000	     -3.54562040	     -3.25805083	   -105.46457302	      0.17454285	      0.93269138	      1.11304736	     11.79854649	      3.72610285	      6.85289172	    -58.28237415	    -11.41849821	     15.67229539	      8.48951622	     -6.19758960	    -17.32434636	    -17.54830928	      3.00181562	      0.42371485	     -7.07597238	     -0.07943365	      2.49231094
      4.26000000	     -3.63422023	     -3.38440117	   -105.54080660	      0.17466431	      0.93347611	      1.11744966	     12.46979470	      3.45454212	      6.84532252	    -58.84468700	    -10.84931290	     15.64426499	      7.95857252	     -6.12974896	    -17.34455368	    -17.42436318	      3.26176898	      0.35380622	     -7.27883816	     -0.00961343	      2.06127844
      4.27000000	     -3.79429785	     -3.48429366	   -105.58991948	      0.17463220	      0.93435030	      1.12180335	     13.03548085	      3.28830962	      6.86916350	    -59.11842633	    -10.10606408	     15.62355190	      7.42102951	     -6.14448429	    -17.30479824	    -17.25131598	      3.44581057	      0.27317939	     -7.45245222	      0.13815646	      1.64833616
      4.28000000	     -4.03728872	     -3.63655656	   -105.59990657	      0.17451509	      0.93540448	      1.12612702	     13.40547720	      3.19909151	      6.89412427	    -59.10252079	     -9.24773112	     15.65399160	      6.80345899	     -6.23425005	    -17.23657612	    -17.05677233	      3.60750392	      0.16201779	     -7.69581848	      0.36082121	      1.24015075
      4.29000000	     -4.32968297	     -3.67587661	   -105.60078151	      0.17425378	      0.93633168	      1.13032362	     13.79277149	      3.22041455	      6.96027330	    -58.85438638	     -8.26171320	     15.65509968	      6.31381979	     -6.42636786	    -17.13292714	    -16.89462291	      3.80406719	      0.13181937	     -7.82000746	      0.66445132	      0.90482356
      4.30000000	     -4.69759990	     -3.82719602	   -105.57006035	      0.17396192	      0.93747972	      1.13453170	     13.91788983	      3.26976662	      6.99925818	    -58.32478718	     -7.23534850	     15.77156347	      5.67758805	     -6.67117411	    -17.04224789	    -16.70872554	      4.00176410	      0.12938264	     -8.07553404	      1.02262177	      0.56365146
      4.31000000	     -4.97071246	     -3.81782171	   -105.53799063	      0.17362229	      0.93829399	      1.13856214	     14.19238230	      3.26761296	      7.07258756	    -57.65297251	     -6.11519398	     15.75676638	      5.27262210	     -6.87838716	    -16.95566937	    -16.57080433	      4.16096907	      0.11708392	     -8.12383436	      1.32408385	      0.27949757
      4.32000000	     -5.26316444	     -3.92691810	   -105.48529188	      0.17334392	      0.93923838	      1.14255615	     14.24613840	      3.20764977	      7.09151952	    -56.76565127	     -5.04972863	     15.75160138	      4.72265192	     -7.06802733	    -16.88696933	    -16.38705733	      4.34468802	      0.13402780	     -8.30978452	      1.62541388	     -0.00121603
      4.33000000	     -5.41833471	     -3.88235853	   -105.44159681	      0.17304479	      0.93979936	      1.14637209	     14.46846233	      3.03344328	      7.13527019	    -55.77530810	     -4.00063702	     15.65238315	      4.40558645	     -7.17014958	    -16.84491102	    -16.24996057	      4.48023707	      0.12426552	     -8.28534654	      1.82312125	     -0.22290598
      4.34000000	     -5.51962809	     -3.95359521	   -105.36763531	      0.17285352	      0.94041949	      1.15017188	     14.51367114	      2.69963455	      7.08073544	    -54.62336012	     -3.06755299	     15.29354912	      3.95939732	     -7.16771360	    -16.79176069	    -16.04763017	      4.61506143	      0.10795199	     -8.37207297	      1.94215166	     -0.46218903
      4.35000000	     -5.52221133	     -3.94830639	   -105.28922537	      0.17265886	      0.94077336	      1.15384049	     14.62813820	      2.25096066	      7.00238085	    -53.36846536	     -2.21514136	     14.86316973	      3.64479494	     -7.09159308	    -16.75318597	    -15.87531544	      4.73445850	      0.08180866	     -8.34786721	      1.97955098	     -0.66146825
      4.36000000	     -5.46317328	     -3.94091683	   -105.19990524	      0.17246625	      0.94101101	      1.15743649	     14.70413952	      1.69653178	      6.87079662	    -51.98382053	     -1.46427494	     14.26796793	      3.34733355	     -6.94900023	    -16.70268938	    -15.68347027	      4.83591048	      0.03970570	     -8.30217339	      1.95361901	     -0.83878967
      4.37000000	     -5.35137393	     -3.93481051	   -105.08894358	      0.17227628	      0.94113656	      1.16096135	     14.73101142	      1.04315919	      6.66331561	    -50.46900635	     -0.78535217	     13.55734331	      3.07273393	     -6.75295139	    -16.64429959	    -15.49312407	      4.93981048	     -0.01024209	     -8.24382994	      1.87293857	     -0.99968546
      4.38000000	     -5.21740642	     -3.91817623	   -104.97933047	      0.17201906	      0.94118080	      1.16441943	     14.68939851	      0.35794213	      6.44045536	    -48.79099159	     -0.15676704	     12.68525686	      2.81640742	     -6.54217098	    -16.58947722	    -15.30058073	      5.04220609	     -0.07636372	     -8.16610996	      1.77077124	     -1.13302510
      4.39000000	     -5.04868915	     -3.91222727	   -104.83941219	      0.17175332	      0.94115850	      1.16782281	     14.56083954	     -0.39418417	      6.14324729	    -46.96182166	      0.43605104	     11.77071619	      2.57532519	     -6.29754105	    -16.51202940	    -15.12394188	      5.15285094	     -0.13853057	     -8.08848794	      1.63019848	     -1.27346332
